<svg xmlns="http://www.w3.org/2000/svg" width="597" height="614" viewBox="0 0 597 614"><defs><style>.cls-1 { fill: #202242; fill-rule: evenodd; opacity: 0.03; }</style></defs><path class="cls-1" d="M539.245 220.55a57.437 57.437 0 0 1-34.93-11.81L392.9 291.71a103.24 103.24 0 0 1-11.263 80.52l95.416 79.14a57.773 57.773 0 1 1-20.44 24.64l-95.6-79.29a102.91 102.91 0 0 1-51.13 24.1v107.89a57.75 57.75 0 1 1-32.01 0V421.06a103.112 103.112 0 0 1-56.953-28.45l-109.1 81.23a57.9 57.9 0 1 1-19.134-25.67l109.09-81.23a103.144 103.144 0 0 1-1.82-92.62L105.05 195.6a57.77 57.77 0 1 1 20.442-24.64l92.683 76.87a103.13 103.13 0 0 1 59.013-31.12V113.29a57.75 57.75 0 1 1 32.01 0v103.42a103.522 103.522 0 0 1 70.166 45.15l105.816-78.79a57.742 57.742 0 1 1 54.065 37.48zm-29.713 304.31a25.75 25.75 0 1 0-25.743-25.75 25.77 25.77 0 0 0 25.742 25.75zM78.405 478.83a.14.14 0 0 0-.034-.04c-.01-.02-.02-.03-.03-.05a27.1 27.1 0 1 0 .065.09zm189.728 105.38a25.74 25.74 0 1 0 25.738-25.75 25.772 25.772 0 0 0-25.737 25.75zm-195.57-462.1a25.75 25.75 0 1 0 25.747 25.75 25.77 25.77 0 0 0-25.748-25.75zM318.93 57.79a25.74 25.74 0 1 0-25.736 25.75 25.77 25.77 0 0 0 25.737-25.75zm41.1 236.17a16.162 16.162 0 0 1-1.65-4.02 70.38 70.38 0 1 0 1.647 4.02zm179.22-156.94a25.705 25.705 0 0 0-20.654 41.06c.012.01.025.03.036.04a.137.137 0 0 0 .028.04 25.727 25.727 0 1 0 20.585-41.14z"/></svg>