<svg xmlns="http://www.w3.org/2000/svg" width="101.187" height="108.468" viewBox="0 0 101.187 108.468"><path fill="#ffffff" d="M87.937 108.078a10.5 10.5 0 0 1-5.407-16.82L69.762 73.27a18.96 18.96 0 0 1-25.02-7.41l-23.77 9.428a10.543 10.543 0 1 1-2.047-5.138l23.768-9.427a18.948 18.948 0 0 1 20.65-23.186l4.81-17.952a10.52 10.52 0 1 1 5.346 1.432L68.69 38.97a18.946 18.946 0 0 1 5.59 31.107L87.04 88.062a10.51 10.51 0 1 1 .895 20.016zm-76.124-36.43a4.98 4.98 0 1 0 3.525 6.1 4.988 4.988 0 0 0-3.53-6.1zm66.45-59.85a4.984 4.984 0 1 0-6.1 3.52 4.987 4.987 0 0 0 6.097-3.52zM64.638 43.4a13.433 13.433 0 1 0 9.512 16.457 13.455 13.455 0 0 0-9.513-16.458zm27.3 49.72a4.98 4.98 0 1 0 3.525 6.1 4.987 4.987 0 0 0-3.525-6.1z"/></svg>
