<svg xmlns="http://www.w3.org/2000/svg" width="168" height="169" viewBox="0 0 168 169"><defs><style>.cls-1 { fill: #fff; fill-rule: evenodd; }</style></defs><path class="cls-1" d="M147.96 133.87H86.312v30.52h39.308a2.305 2.305 0 1 1 0 4.61H42.38a2.305 2.305 0 1 1 0-4.61h39.308v-30.52H20.04A20.048 20.048 0 0 1 0 113.86V51.2a4.843 4.843 0 0 1 .03-.51c0-.04.013-.08.02-.13.016-.12.036-.24.063-.37.01-.05.026-.09.038-.14.03-.12.063-.23.1-.34l.057-.15c.04-.11.085-.21.134-.32.015-.03.025-.06.04-.09L23.598 2.56A4.624 4.624 0 0 1 27.742 0h112.512a4.624 4.624 0 0 1 4.144 2.56l23.118 46.59c.015.03.025.06.04.09.048.11.092.21.133.32l.055.15c.038.11.07.22.1.34.012.05.027.09.038.14.027.13.047.25.064.37.006.05.015.09.02.13a4.843 4.843 0 0 1 .03.51v62.66a20.048 20.048 0 0 1-20.037 20.01zM137.386 9.23H30.614L12.078 46.58h143.844zm21.363 46.59H9.25V85.7h149.5V55.82zm0 39.11H9.25v18.93a10.8 10.8 0 0 0 10.788 10.78H147.96a10.8 10.8 0 0 0 10.79-10.78V94.93zm-18.25 19.54a4.365 4.365 0 1 1 4.374-4.37 4.377 4.377 0 0 1-4.374 4.37zm0-5.66a1.29 1.29 0 1 0 1.292 1.29 1.293 1.293 0 0 0-1.292-1.29zm-17.716 5.66a4.365 4.365 0 1 1 4.373-4.37 4.377 4.377 0 0 1-4.37 4.37zm0-5.66a1.29 1.29 0 1 0 1.29 1.29 1.294 1.294 0 0 0-1.286-1.29zm-17.946 5.66a4.365 4.365 0 1 1 4.374-4.37 4.376 4.376 0 0 1-4.37 4.37zm0-5.66a1.29 1.29 0 1 0 1.292 1.29 1.293 1.293 0 0 0-1.288-1.29zm-79.15 12.1A10.805 10.805 0 1 1 36.51 110.1a10.83 10.83 0 0 1-10.82 10.81zm0-17a6.19 6.19 0 1 0 6.2 6.19 6.2 6.2 0 0 0-6.197-6.19zm0-44.74a10.805 10.805 0 1 1-10.825 10.8 10.828 10.828 0 0 1 10.828-10.8zm0 16.99a6.19 6.19 0 1 0-6.2-6.19 6.2 6.2 0 0 0 6.203 6.19zm79.15-10.55a4.365 4.365 0 1 1-4.373 4.36 4.375 4.375 0 0 1 4.377-4.36zm0 5.65a1.29 1.29 0 1 0-1.29-1.29 1.287 1.287 0 0 0 1.294 1.29zm17.946-5.65a4.365 4.365 0 1 1-4.374 4.36 4.374 4.374 0 0 1 4.378-4.36zm0 5.65a1.29 1.29 0 1 0-1.292-1.29 1.286 1.286 0 0 0 1.296 1.29zm17.716-5.65a4.365 4.365 0 1 1-4.374 4.36 4.375 4.375 0 0 1 4.374-4.36zm0 5.65a1.29 1.29 0 1 0-1.29-1.29 1.287 1.287 0 0 0 1.29 1.29zM6.165 164.39h9.76a2.305 2.305 0 1 1 0 4.61h-9.76a2.305 2.305 0 1 1 .004-4.61zm17.725 0h9.76a2.305 2.305 0 1 1 0 4.61h-9.76a2.305 2.305 0 1 1 .004-4.61zm109.94 0h9.76a2.305 2.305 0 1 1 0 4.61h-9.76a2.305 2.305 0 1 1 .004-4.61zm16.7 0h9.76a2.305 2.305 0 1 1 0 4.61h-9.76a2.305 2.305 0 1 1 0-4.61z"/></svg>